PathFileType	4	(X/Y/Z)	C:/Users/opensim2020/Desktop/walking_exp_matlab/subject03_walking15_straight_04.trc	
DataRate	CameraRate	NumFrames	NumMarkers	Units	OrigDataRate	OrigDataStartFrame	OrigNumFrames	
100.00	100.00	5	47	mm	100.00	2275	182	
Frame#	Time	LFHD			RFHD			LBHD			RBHD			C7			T10			CLAV			STRN			RBAK			LSHO			LUPA			LELB			LFRM			LWRA			LWRB			LFIN			RSHO			RUPA			RELB			RFRM			RWRA			RWRB			RFIN			LASI			RASI			LPSI			RPSI			LTHI			LKNE			LTIB			LANK			LHEE			LTOE			RTHI			RKNE			RTIB			RANK			RHEE			RTOE			*39			*40			*41			*42			*43			*44			*45			*46			
		X1	Y1	Z1	X2	Y2	Z2	X3	Y3	Z3	X4	Y4	Z4	X5	Y5	Z5	X6	Y6	Z6	X7	Y7	Z7	X8	Y8	Z8	X9	Y9	Z9	X10	Y10	Z10	X11	Y11	Z11	X12	Y12	Z12	X13	Y13	Z13	X14	Y14	Z14	X15	Y15	Z15	X16	Y16	Z16	X17	Y17	Z17	X18	Y18	Z18	X19	Y19	Z19	X20	Y20	Z20	X21	Y21	Z21	X22	Y22	Z22	X23	Y23	Z23	X24	Y24	Z24	X25	Y25	Z25	X26	Y26	Z26	X27	Y27	Z27	X28	Y28	Z28	X29	Y29	Z29	X30	Y30	Z30	X31	Y31	Z31	X32	Y32	Z32	X33	Y33	Z33	X34	Y34	Z34	X35	Y35	Z35	X36	Y36	Z36	X37	Y37	Z37	X38	Y38	Z38	X39	Y39	Z39	X40	Y40	Z40	X41	Y41	Z41	X42	Y42	Z42	X43	Y43	Z43	X44	Y44	Z44	X45	Y45	Z45	X46	Y46	Z46	X47	Y47	Z47	

114	1.130	-920.27594	-327.37033	1600.99060	-1052.11780	-320.93494	1613.70300	-921.21069	-197.58334	1563.58203	-1051.42859	-196.21617	1575.21143	-989.86462	-164.23131	1396.35095	-997.16559	-155.65457	1080.73108	-993.90057	-291.53412	1330.85266	-990.99756	-350.56580	1170.89844	-1086.23181	-122.48462	1215.73230	-836.31897	-239.28731	1358.32031	-765.28253	-277.39325	1168.61926	-757.19073	-332.14835	1060.97473	-781.74054	-437.76382	998.47162	-837.63446	-533.39423	951.14276	-790.36633	-523.04364	924.38422	-811.00781	-599.18439	903.64056	-1153.84644	-239.29276	1352.64734	-1224.17651	-217.94374	1130.30200	-1236.20117	-213.97215	1016.75476	-1242.28918	-194.91229	880.89557	-1210.44995	-197.00389	778.52338	-1256.56702	-166.29138	784.41412	-1243.49573	-156.34576	708.19916	-875.55768	-318.92130	923.10602	-1111.50732	-330.53842	928.91357	-934.88989	-159.87199	943.51923	-1082.68152	-166.23439	951.01093	-826.42169	-223.50713	627.97968	-845.19769	-190.30042	449.84848	-853.39685	-37.22953	313.64740	-900.84045	95.63362	154.01065	-941.66034	141.20097	155.68655	-931.33929	11.10554	26.82724	-1153.34888	-338.27075	637.32092	-1102.69031	-409.78287	477.81268	-1106.46350	-403.90155	281.81058	-1055.20740	-412.13284	66.92003	-1004.18640	-366.65512	35.77248	-1032.54944	-553.28015	33.12561	-964.42053	-246.59325	1667.50793																					 
115	1.140	-920.40100	-339.25842	1602.05591	-1052.22803	-333.07574	1615.27612	-921.77081	-209.50905	1564.54614	-1051.90906	-208.44104	1576.65320	-990.59521	-176.98900	1397.83936	-997.74377	-168.05589	1082.09509	-994.73047	-304.08289	1332.18591	-991.81525	-363.25568	1172.34937	-1087.63171	-135.33693	1217.49524	-837.47021	-251.46437	1360.13232	-766.38263	-287.51245	1169.89600	-758.87097	-340.15536	1061.71484	-782.72675	-446.00354	999.09894	-838.16962	-541.83722	952.19812	-791.30298	-531.06708	924.67175	-811.07654	-607.60736	905.19452	-1154.60852	-252.03752	1354.48010	-1225.00513	-232.92697	1131.83362	-1236.91345	-230.05675	1018.34283	-1243.25989	-212.41017	882.29926	-1211.06079	-214.79207	780.07306	-1257.92676	-184.95607	785.69659	-1244.69275	-174.68556	709.24194	-877.60400	-332.63464	924.25519	-1112.75244	-343.49280	931.90637	-935.26373	-173.30956	944.23560	-1083.07007	-179.24521	953.18335	-825.73151	-242.91304	627.27576	-842.72589	-213.83379	448.58704	-851.82123	-57.54696	316.65344	-899.51764	79.42768	161.39505	-941.39642	123.76350	167.74202	-932.45123	9.27807	26.61188	-1153.94849	-352.80457	639.05005	-1103.07227	-420.74179	477.91235	-1106.94714	-409.98508	281.91388	-1055.02515	-412.53229	67.01643	-1004.34082	-366.72156	35.87777	-1032.06116	-553.57709	32.83705	-964.86304	-258.61105	1669.02527																					 
116	1.150	-920.60553	-351.14801	1603.09094	-1052.37915	-345.15051	1616.63782	-922.34619	-221.46202	1565.21167	-1052.47156	-220.60410	1577.68896	-991.59668	-189.46103	1398.89648	-998.43201	-180.21004	1083.35120	-995.45886	-316.65903	1333.31091	-992.45490	-375.95551	1173.61047	-1088.84949	-148.25069	1219.21338	-838.64484	-263.62534	1361.84875	-767.55939	-297.60458	1171.28357	-760.33759	-348.96176	1062.55896	-783.74170	-453.78107	999.49011	-838.84113	-549.74457	952.54443	-792.29926	-538.71057	924.57684	-811.10651	-615.35901	905.79773	-1155.24390	-264.96750	1356.15601	-1225.95154	-247.85056	1133.51123	-1237.69519	-246.21396	1020.06097	-1244.32471	-230.24403	883.95111	-1211.84387	-233.15993	781.62726	-1259.20837	-204.11961	787.03107	-1246.01013	-193.98032	710.44885	-879.38123	-345.88297	925.42877	-1113.92310	-356.13126	934.68481	-935.84888	-186.22762	944.85602	-1083.53613	-192.09694	955.00415	-825.17682	-262.34280	626.21405	-841.24536	-237.90376	447.05426	-850.70502	-79.54087	319.08173	-897.19110	61.21302	167.69766	-939.27527	104.68446	179.76773	-931.64038	5.82696	28.13734	-1155.41199	-366.30978	640.59058	-1103.83704	-429.97141	477.80774	-1107.35632	-414.76068	281.66431	-1054.94800	-412.70026	67.08567	-1004.42474	-366.68491	35.93907	-1031.58716	-553.69165	32.67570	-965.69843	-270.15521	1670.55469																					 
117	1.160	-920.82861	-362.86630	1604.25244	-1052.67554	-357.08707	1617.93396	-922.96979	-233.40527	1565.80383	-1052.99744	-232.71507	1578.48669	-992.97363	-201.51553	1399.95251	-999.14948	-192.53781	1084.62048	-996.17865	-329.16968	1334.34070	-992.91675	-388.28995	1174.64172	-1089.84253	-161.23906	1220.81580	-839.87598	-275.63672	1363.34741	-768.68140	-307.68738	1172.65540	-762.00476	-356.76221	1063.37708	-784.70911	-461.40155	999.53418	-839.58014	-557.25580	952.24414	-793.25165	-545.89404	924.02972	-811.27771	-622.56982	905.50665	-1155.89575	-277.89886	1357.90918	-1227.02246	-262.67926	1135.18848	-1238.53052	-262.47699	1021.71387	-1245.41382	-248.27841	885.53418	-1212.61060	-251.99529	783.18091	-1260.39771	-223.68298	788.23480	-1247.41370	-214.02068	711.52551	-880.73273	-358.41812	926.47797	-1115.04614	-368.61389	937.01178	-936.53979	-198.57108	945.37555	-1084.16870	-204.92642	956.45215	-824.87860	-281.63736	624.95404	-840.45856	-262.55289	445.61060	-849.76691	-102.92039	320.87491	-894.64124	41.49811	173.63390	-936.23444	84.44064	191.43161	-930.78711	-0.90858	31.90428	-1157.03333	-377.56665	642.11456	-1105.13843	-437.64380	477.35574	-1108.00049	-418.57303	281.44489	-1055.00061	-412.66403	67.15369	-1004.59515	-366.60938	35.99973	-1031.71948	-553.66449	32.53814	-964.94855	-281.53281	1671.56616																					 
118	1.170	-921.09387	-374.71039	1605.36279	-1052.97253	-369.10684	1619.23535	-923.47028	-245.40372	1566.31970	-1053.50671	-244.80792	1579.20215	-993.97961	-213.68106	1400.66370	-999.96295	-204.79314	1085.78589	-996.79279	-341.59274	1335.29285	-993.21484	-400.54782	1175.58203	-1090.90833	-174.06924	1222.33179	-841.05267	-287.46274	1364.64746	-769.86804	-317.85779	1173.92859	-763.31702	-364.96072	1063.87878	-785.58514	-468.82016	999.16315	-840.23907	-564.68420	951.41388	-794.11127	-552.81262	923.02277	-811.54803	-629.45233	904.26855	-1156.65991	-290.76999	1359.34985	-1228.30688	-277.41071	1136.72913	-1239.75037	-278.60818	1023.25592	-1246.50867	-266.56079	886.85809	-1213.48462	-271.47897	784.57385	-1261.52673	-243.52834	789.28094	-1248.83313	-234.77567	712.44092	-881.55164	-370.52280	927.36273	-1116.01038	-380.93109	938.74982	-937.54797	-210.52502	945.69348	-1085.04272	-217.66074	957.56500	-824.89618	-300.33340	623.57953	-840.25000	-287.67123	443.70239	-848.15717	-127.56109	321.70059	-893.17126	21.53471	180.39429	-934.05908	63.54199	201.58447	-927.60956	-12.99877	37.40503	-1158.49060	-386.50427	642.86969	-1106.61353	-444.01831	476.58109	-1108.86169	-421.90585	281.29153	-1055.30408	-412.67032	67.26659	-1004.71014	-366.60159	36.08411	-1031.64343	-553.69812	32.39630	-964.64935	-293.51144	1671.61816																					 
